<svg width="110" height="110" viewBox="0 0 110 110" fill="none" xmlns="http://www.w3.org/2000/svg">
<g filter="url(#filter0_d_418_62)">
<rect x="13" y="12" width="84" height="84" rx="15" fill="white"/>
<path d="M68.0239 56.1667H72.3334C71.5382 61.7025 67.3067 66.3132 61.5499 68.3347V71.3333H48.4502V68.3347C42.6934 66.3132 38.4619 61.7047 37.6667 56.1667H68.0239ZM68.0239 56.1667C69.0417 56.1629 70.0256 55.8011 70.8033 55.1446C71.581 54.4881 72.1028 53.5788 72.2773 52.5761C72.4517 51.5734 72.2677 50.5413 71.7574 49.6607C71.2471 48.7801 70.4431 48.1072 69.4864 47.76M68.0239 56.1667H68.0001M69.4864 47.76C69.0228 47.5932 68.5201 47.5 68.0001 47.5M69.4864 47.76C71.2978 45.5218 71.1179 41.975 68.8797 40.1637C67.8039 39.2938 66.4268 38.8865 65.0509 39.0311C63.675 39.1757 62.4127 39.8605 61.5412 40.935C60.9064 37.6807 57.7539 36.268 54.4996 36.905C53.7255 37.0555 52.9887 37.3571 52.3312 37.7925C51.6737 38.2279 51.1085 38.7886 50.6678 39.4425C50.2272 40.0965 49.9197 40.8309 49.763 41.6037C49.6063 42.3766 49.6034 43.1727 49.7546 43.9467C48.4567 41.3748 45.5079 39.4053 42.3359 41.0022C39.7619 42.3 38.6417 45.7493 39.9396 48.3233M39.9396 48.3233C38.4706 48.9408 37.6667 50.3947 37.6667 52.0868C37.6667 54.3402 39.4932 56.1667 41.7466 56.1667M39.9396 48.3233C40.5614 48.0633 42.3142 47.4567 44.3704 49.0643M55.7996 47.1338C56.8449 46.6564 58.037 46.6137 59.1137 47.0152C60.1905 47.4166 61.0637 48.2293 61.5412 49.2745" stroke="#F1980F" stroke-width="2" stroke-linecap="round" stroke-linejoin="round"/>
</g>
<defs>
<filter id="filter0_d_418_62" x="0" y="0" width="110" height="110" filterUnits="userSpaceOnUse" color-interpolation-filters="sRGB">
<feFlood flood-opacity="0" result="BackgroundImageFix"/>
<feColorMatrix in="SourceAlpha" type="matrix" values="0 0 0 0 0 0 0 0 0 0 0 0 0 0 0 0 0 0 127 0" result="hardAlpha"/>
<feMorphology radius="5" operator="dilate" in="SourceAlpha" result="effect1_dropShadow_418_62"/>
<feOffset dy="1"/>
<feGaussianBlur stdDeviation="4"/>
<feComposite in2="hardAlpha" operator="out"/>
<feColorMatrix type="matrix" values="0 0 0 0 0 0 0 0 0 0 0 0 0 0 0 0 0 0 0.05 0"/>
<feBlend mode="normal" in2="BackgroundImageFix" result="effect1_dropShadow_418_62"/>
<feBlend mode="normal" in="SourceGraphic" in2="effect1_dropShadow_418_62" result="shape"/>
</filter>
</defs>
</svg>
